<svg id="Logo_Base_Kopie" data-name="Logo Base Kopie" xmlns="http://www.w3.org/2000/svg" viewBox="0 0 85 34"><defs><style>.cls-1{fill:#ec6608;}.cls-2{fill:#fff;}</style></defs><title>Logo_WithoutSubline_2c_wab</title><rect class="cls-1" width="85" height="34"/><polygon class="cls-2" points="75.36 13.87 75.36 18.09 69.98 18.09 69.98 13.86 65.65 13.87 65.63 25.42 70.04 25.4 70.04 20.93 75.4 20.93 75.4 25.42 79.72 25.41 79.7 13.86 75.36 13.87"/><path class="cls-2" d="M57.48,16c2.15,0,2.57,1.39,2.64,1.68h4.82c-.22-2.92-2.89-4.53-7.51-4.53-5.14,0-7.76,2.07-7.78,6.15a7.66,7.66,0,0,0,.14,1.61c.5,3.16,3,4.69,7.69,4.69s7.36-1.69,7.69-4.63a1.79,1.79,0,0,0,0-.23h-4.8a2.83,2.83,0,0,1-2.86,1.94A2.87,2.87,0,0,1,54.67,21V21a3.91,3.91,0,0,1-.24-1.55C54.45,17.2,55.51,16,57.48,16Z" transform="translate(-0.01 0.05)"/><path class="cls-2" d="M20.17,7c0,3,2,4.19,7,4.19,4.75,0,7.06-1.35,7.06-4.11l0-7.13H29.81l0,5.78a2.45,2.45,0,0,1-2.57,2.61,2.43,2.43,0,0,1-2.56-2.55l0-5.84H20.19c0,.94,0,2.63,0,4.11C20.18,5.31,20.17,6.46,20.17,7Z" transform="translate(-0.01 0.05)"/><path class="cls-2" d="M20.19,11.4v7.84A4.64,4.64,0,0,0,20.54,21l0,.08c.75,1.66,2.73,2.37,6.63,2.37,3.65,0,5.82-.77,6.63-2.37a4.17,4.17,0,0,0,.41-1.8V11.4H29.79V18a2.49,2.49,0,0,1-2.55,2.66A2.46,2.46,0,0,1,24.64,18V11.4Z" transform="translate(-0.01 0.05)"/><path class="cls-2" d="M34.24,23.7H29.79v6.47a2.46,2.46,0,0,1-2.53,2.71h0a2.58,2.58,0,0,1-1.87-.67,2.81,2.81,0,0,1-.72-2V23.7H20.19v7.57A4,4,0,0,0,20.92,34H33.43a3.76,3.76,0,0,0,.81-2.67Z" transform="translate(-0.01 0.05)"/><path class="cls-2" d="M15.2,25.41c3,0,4.52-1.18,4.61-3.51v0a2.78,2.78,0,0,0-.1-.86,3.69,3.69,0,0,0-2-2.24l-.08-.05.08-.06a2.5,2.5,0,0,0,1.34-2.19c0-.63-.29-2.7-4.07-2.7H4.68V25.41Zm-6-8.84h4.35s.79.15.79.82a.81.81,0,0,1-.79.82H9.2Zm0,4.51h5s.78.14.78.81a.8.8,0,0,1-.78.82h-5Z" transform="translate(-0.01 0.05)"/><path class="cls-2" d="M42.39,22.51c-1,0-1.68-.37-1.84-1l-6-.2a3.06,3.06,0,0,0,.85,2.3c1.16,1.22,3.49,1.86,6.74,1.86h.23c5.26-.05,7.12-1.16,7.11-4.23,0-.11,0-.2,0-.29-.23-1.94-2-2.87-6.84-3.54h0c-1.51-.21-2.5-.34-2.48-1,0-.2.16-.68,1.39-.68h0a2.58,2.58,0,0,1,2,.87l5.45.2C48.74,14,45.1,13,41.71,13h-.23c-3.45,0-6.64.58-6.64,4.11,0,2.79,3.33,3.21,6.55,3.62l1,.13a8,8,0,0,1,.88.17c.56.17.83.42.82.78S43.89,22.51,42.39,22.51Z" transform="translate(-0.01 0.05)"/></svg>