<?xml version="1.0" encoding="utf-8"?>
<!-- Generator: Adobe Illustrator 22.1.0, SVG Export Plug-In . SVG Version: 6.00 Build 0)  -->
<svg version="1.1" id="Ebene_1" xmlns="http://www.w3.org/2000/svg" xmlns:xlink="http://www.w3.org/1999/xlink" x="0px" y="0px"
	 viewBox="0 0 192 43.5" style="enable-background:new 0 0 192 43.5;" xml:space="preserve">
<metadata><?xpacket begin="﻿" id="W5M0MpCehiHzreSzNTczkc9d"?>
<x:xmpmeta xmlns:x="adobe:ns:meta/" x:xmptk="Adobe XMP Core 5.6-c143 79.161356, 2017/09/07-01:11:22        ">
   <rdf:RDF xmlns:rdf="http://www.w3.org/1999/02/22-rdf-syntax-ns#">
      <rdf:Description rdf:about=""/>
   </rdf:RDF>
</x:xmpmeta>
                                                                                                    
                                                                                                    
                                                                                                    
                                                                                                    
                                                                                                    
                                                                                                    
                                                                                                    
                                                                                                    
                                                                                                    
                                                                                                    
                                                                                                    
                                                                                                    
                                                                                                    
                                                                                                    
                                                                                                    
                                                                                                    
                                                                                                    
                                                                                                    
                                                                                                    
                                                                                                    
                           
<?xpacket end="w"?></metadata>
<style type="text/css">
	.st0{fill:#3D4548;}
	.st1{fill:#AAA645;}
	.st2{fill:#FFFFFF;}
</style>
<g>
	<path class="st0" d="M62.9,25.8c-0.7-0.1-1.4-0.2-2-0.2c-2,0-3.5,0.4-4.6,1.1c-1.1,0.8-1.6,1.8-1.6,3.3c0,0.7,0.1,1.3,0.4,1.9
		c0.3,0.5,0.7,1,1.3,1.3c0.7,0.4,2,0.9,4,1.3c0.1,0,0.1,0,0.1,0c0,0,0.1,0,0.1,0c1.9,0.4,2.8,1.1,2.8,2c0,0.7-0.3,1.2-0.9,1.6
		s-1.5,0.6-2.6,0.6c-0.9,0-1.9-0.1-2.8-0.4c-0.9-0.3-1.7-0.7-2.5-1.2c0.1,0.4,0.1,0.8,0.2,1.3c0,0.5,0.1,1.1,0.1,1.8
		c0.7,0.3,1.5,0.6,2.4,0.7c0.9,0.2,1.8,0.2,2.8,0.2c2,0,3.5-0.4,4.5-1.2c1-0.8,1.6-2,1.6-3.6c0-1.2-0.4-2.1-1.1-2.8
		c-0.7-0.7-2-1.2-3.7-1.5c0,0,0,0-0.1,0c-2.7-0.5-4-1.3-4-2.3c0-0.6,0.3-1.1,0.8-1.3c0.5-0.3,1.3-0.4,2.4-0.4c0.9,0,1.7,0.1,2.4,0.3
		c0.8,0.2,1.5,0.4,2.1,0.8c-0.1-0.4-0.1-0.9-0.1-1.4c0-0.5,0-1,0-1.5C64.3,26.1,63.6,25.9,62.9,25.8L62.9,25.8z M80.1,29.8
		c0.8,0.9,1.2,2.1,1.2,3.7c0,1.5-0.4,2.7-1.2,3.7c-0.8,0.9-1.9,1.4-3.3,1.4c-1.4,0-2.5-0.5-3.3-1.4c-0.8-0.9-1.2-2.1-1.2-3.7
		c0-1.5,0.4-2.7,1.2-3.7c0.8-0.9,1.9-1.4,3.3-1.4C78.2,28.4,79.3,28.9,80.1,29.8L80.1,29.8z M71.2,27.8c-1.4,1.4-2.1,3.3-2.1,5.6
		c0,2.3,0.7,4.2,2.1,5.6c1.4,1.4,3.3,2.1,5.6,2.1c2.3,0,4.2-0.7,5.6-2.1c1.4-1.4,2.1-3.3,2.1-5.6c0-2.3-0.7-4.2-2.1-5.6
		c-1.4-1.4-3.3-2.2-5.6-2.2C74.5,25.7,72.6,26.4,71.2,27.8L71.2,27.8z M88.4,40.8h10.4v-2.7h-7.3V26.1h-3.1V40.8L88.4,40.8z
		 M101.4,35.3c0,2,0.6,3.5,1.7,4.4c1.1,1,2.8,1.5,5,1.5c2.2,0,3.9-0.5,5-1.5c1.1-1,1.7-2.4,1.7-4.4v-9.2h-2.8v7.9v0.5
		c0,0.8,0,1.4-0.1,1.8c-0.1,0.4-0.2,0.7-0.4,1c-0.3,0.4-0.7,0.8-1.2,1c-0.5,0.2-1.1,0.3-1.9,0.3c-1.3,0-2.3-0.3-2.9-0.9
		c-0.6-0.6-0.9-1.5-0.9-2.8v-8.8h-3.1V35.3L101.4,35.3z M118.1,28.7h4.7v12.1h3.1V28.7h4.7v-2.6h-12.4V28.7L118.1,28.7z M133.9,40.8
		h3.1V26.1h-3.1V40.8L133.9,40.8z M151.9,29.8c0.8,0.9,1.2,2.1,1.2,3.7c0,1.5-0.4,2.7-1.2,3.7c-0.8,0.9-1.9,1.4-3.3,1.4
		c-1.4,0-2.5-0.5-3.3-1.4c-0.8-0.9-1.2-2.1-1.2-3.7c0-1.5,0.4-2.7,1.2-3.7c0.8-0.9,1.9-1.4,3.3-1.4C150,28.4,151.1,28.9,151.9,29.8
		L151.9,29.8z M143.1,27.8c-1.4,1.4-2.1,3.3-2.1,5.6c0,2.3,0.7,4.2,2.1,5.6c1.4,1.4,3.3,2.1,5.6,2.1c2.3,0,4.2-0.7,5.6-2.1
		c1.4-1.4,2.1-3.3,2.1-5.6c0-2.3-0.7-4.2-2.1-5.6c-1.4-1.4-3.3-2.2-5.6-2.2C146.3,25.7,144.5,26.4,143.1,27.8L143.1,27.8z
		 M160.2,40.8h2.9V30.3l8.9,10.5h2.9V26.1H172v10.4l-8.9-10.4h-3V40.8L160.2,40.8z M187.1,25.8c-0.7-0.1-1.4-0.2-2-0.2
		c-2,0-3.5,0.4-4.6,1.1c-1.1,0.8-1.6,1.8-1.6,3.3c0,0.7,0.1,1.3,0.4,1.9c0.3,0.5,0.7,1,1.3,1.3c0.7,0.4,2,0.9,4,1.3
		c0.1,0,0.1,0,0.1,0c0,0,0.1,0,0.1,0c1.9,0.4,2.8,1.1,2.8,2c0,0.7-0.3,1.2-0.9,1.6c-0.6,0.4-1.5,0.6-2.6,0.6c-0.9,0-1.9-0.1-2.8-0.4
		c-0.9-0.3-1.7-0.7-2.5-1.2c0.1,0.4,0.1,0.8,0.2,1.3c0,0.5,0.1,1.1,0.1,1.8c0.7,0.3,1.5,0.6,2.4,0.7c0.9,0.2,1.8,0.2,2.8,0.2
		c2,0,3.5-0.4,4.5-1.2c1-0.8,1.6-2,1.6-3.6c0-1.2-0.4-2.1-1.1-2.8c-0.7-0.7-2-1.2-3.7-1.5c0,0,0,0-0.1,0c-2.7-0.5-4-1.3-4-2.3
		c0-0.6,0.3-1.1,0.8-1.3c0.5-0.3,1.3-0.4,2.4-0.4c0.9,0,1.7,0.1,2.4,0.3c0.8,0.2,1.5,0.4,2.1,0.8c-0.1-0.4-0.1-0.9-0.1-1.4
		c0-0.5,0-1,0-1.5C188.5,26.1,187.8,25.9,187.1,25.8L187.1,25.8z"/>
	<path class="st0" d="M55.1,16.7h3.1v-6.4h7.1v6.4h3.1V2h-3.1v5.9h-7.1V2h-3.1V16.7L55.1,16.7z M73.2,11.2c0,2,0.6,3.5,1.7,4.4
		c1.1,1,2.8,1.5,5,1.5c2.2,0,3.9-0.5,5-1.5c1.1-1,1.7-2.4,1.7-4.4V2h-2.8v8v0.5c0,0.8,0,1.4-0.1,1.8c-0.1,0.4-0.2,0.7-0.4,1
		c-0.3,0.4-0.7,0.8-1.2,1c-0.5,0.2-1.1,0.3-1.9,0.3c-1.3,0-2.3-0.3-2.9-0.9c-0.6-0.6-0.9-1.5-0.9-2.8V2h-3.1V11.2L73.2,11.2z
		 M91.4,16.7h2.9L94.2,6.2l5.7,10.5h1.3l5.7-10.5l-0.1,10.5h2.9V2h-3.1l-6,11l-6-11h-3.2V16.7L91.4,16.7z M124.8,11.6h-6.6l3.3-6.7
		L124.8,11.6L124.8,11.6z M112.9,16.7h2.9l1.4-2.9h8.7l1.4,2.9h3.4l-7.6-14.9h-2.8L112.9,16.7L112.9,16.7z M133.9,16.7h2.9V6.2
		l8.9,10.5h2.9V2h-2.9v10.4L136.8,2h-3V16.7L133.9,16.7z"/>
	<path class="st1" d="M0.6,35.7c0,3.9,3.2,7.2,7.2,7.2H36c3.9,0,7.2-3.2,7.2-7.2V7.5c0-3.9-3.2-7.2-7.2-7.2H7.8
		c-3.9,0-7.2,3.2-7.2,7.2V35.7L0.6,35.7z"/>
	<path class="st2" d="M28.9,16c-0.5-0.3-0.9,0.3-0.3,0.6c3.7,2,6.2,4.5,5.9,7.2c-0.5,4.3-7.3,7.6-16,6.7c-2.4-0.3-5.7-1.1-7.8-1.8
		l-5.7,4c3.8,1.6,7.7,2.8,10.7,3.2c11,1.3,20.5-2.7,21.3-8.9C37.4,23,34.1,18.9,28.9,16L28.9,16z"/>
	<path class="st2" d="M18.1,23.7c3.1,1.2,5.8-2.7,3.1-3.9c-3.8-1.7-6.3-4-6.2-6.1c0.2-3.6,8.9-6.6,20.1-4.6c2.1,0.4,2.8,0.6,3.6,0.4
		C35,8,29.9,7.1,25.2,7.1c-9.1,0-16.3,3.4-16.3,7.8C8.9,17.9,12.8,21.6,18.1,23.7L18.1,23.7z"/>
</g>
</svg>
